<?xml version="1.0" encoding="UTF-8"?>
<svg id="Layer_2" data-name="Layer 2" xmlns="http://www.w3.org/2000/svg" viewBox="0 0 228.76 359.84">
  <g id="Layer_1-2" data-name="Layer 1-2">
    <g>
      <path d="M187.37,249.7c7.24,7.17,14.67,14.16,21.64,21.6,4.01,4.28,2.83,11.72-1.92,15.55-10.81,8.71-34.7,3.23-47.88,7.67-2.7.91-3.55,2.16-3.51,4.94.16,10.9.04,21.8.09,32.7.02,3.65-.68,7-3.94,9.11-6.25,4.05-14.08-.03-14.22-7.59-.21-11.24-.09-22.49-.1-33.73,0-12.87-.02-25.73,0-38.6,0-.91.11-1.82.18-2.88,14.87-.84,31.31-3.3,49.8-8.77h-.14Z" fill="#fff" stroke-width="0"/>
      <path d="M201.26,84.65s-20.71,6.61-29.52,8.37c0,0-20.27-35.25-57.27-58.59,0,0-46.26,28.2-68.29,80.62,0,0,17.95,9.25,70.87,9.25s95.66-16.74,95.66-16.74c0,0,12.78,39.65,14.54,57.71s1.5,48.04,1.5,48.04c0,0-53.61,21.43-111.7,21.43S.53,213.63.53,213.63c0,0-2.27-28.57,2.6-52.92,0,0,23.7,8.44,29.54,8.44,0,0-2.92,16.23-2.6,22.4,0,0,34.55,13.31,84.31,13.31s84.51-13.31,84.51-13.31c0,0-1.62-31.82-6.82-46.43,0,0-38.18,9.74-77.69,9.74s-86.59-11.04-106.72-18.83c0,0,14.74-85.06,106.72-136.03,0,0,34.83,17.86,55.94,41.56,21.1,23.7,30.94,43.08,30.94,43.08h0Z" fill="#fff" stroke-width="0"/>
      <path d="M105.56,259.21c5.99.06,11.74.11,17.88.17.02.31.07,3.38.07,4.5,0,28.29.03,56.57-.05,84.86,0,2.13-.33,4.46-1.23,6.35-1.76,3.69-6.18,5.44-10.02,4.5-3.68-.9-6.82-4.66-6.83-8.64-.06-29.56-.05-59.11-.05-88.67,0-.55.24-3.06.24-3.07h0Z" fill="#fff" stroke-width="0"/>
      <path d="M41.56,249.7c-7.24,7.17-14.67,14.16-21.64,21.6-4.01,4.28-2.83,11.72,1.92,15.55,10.81,8.71,34.7,3.23,47.88,7.67,2.7.91,3.55,2.16,3.51,4.94-.16,10.9-.04,21.8-.09,32.7-.02,3.65.68,7,3.94,9.11,6.25,4.05,14.08-.03,14.22-7.59.21-11.24.09-22.49.1-33.73.01-12.87.02-25.73,0-38.6,0-.91-.11-1.82-.18-2.88-14.87-.84-31.31-3.3-49.8-8.77h.14Z" fill="#fff" stroke-width="0"/>
    </g>
  </g>
</svg>