<?xml version="1.0" encoding="UTF-8"?>
<svg id="Layer_2" data-name="Layer 2" xmlns="http://www.w3.org/2000/svg" xmlns:xlink="http://www.w3.org/1999/xlink" viewBox="0 0 314.8 332.12">
  <defs>
    <linearGradient id="linear-gradient" x1="314.07" y1="182.08" x2="27.65" y2="218.67" gradientUnits="userSpaceOnUse">
      <stop offset=".5" stop-color="#2a192c"/>
      <stop offset="1" stop-color="#502d49"/>
    </linearGradient>
    <linearGradient id="linear-gradient-2" x1="12.17" y1="175.93" x2="229.27" y2="203.25" gradientUnits="userSpaceOnUse">
      <stop offset="0" stop-color="#37a5b4"/>
      <stop offset=".78" stop-color="#2a8693"/>
    </linearGradient>
    <linearGradient id="linear-gradient-3" x1="119.49" y1="187.15" x2="79.67" y2="206.92" gradientUnits="userSpaceOnUse">
      <stop offset="0" stop-color="#ec9153"/>
      <stop offset="1" stop-color="#f7b73f"/>
    </linearGradient>
  </defs>
  <g id="Layer_1-2" data-name="Layer 1">
    <g>
      <g>
        <path d="M258.81,58.45c7.25,5.19,12.18,11.49,18.48,17.48-19.18-10.38-39.3-18.94-60.45-24.48-5.05-1.32-10.37-2.48-15.49-3.5-53.31-10.64-106.86-3.65-155.36,20.98.83-.75,1.79-2.54,4-4.5l.25,1.5c32.01-16.46,71.08-24.22,106.91-23.98,1.61-1.43.66-6.95,1-11.49l-14.24-.5c37.78-1.87,83.53,6,114.9,28.48Z" fill="#991e33" stroke-width="0"/>
        <path d="M143.91,29.97l14.24.5c-.34,4.54.61,10.06-1,11.49-35.83-.24-74.89,7.52-106.91,23.98l-.25-1.5c3.71-3.29,7.21-6.72,10.99-9.99,23.92-15.7,54.61-23.07,82.93-24.48Z" fill="#be383e" stroke-width="0"/>
        <g>
          <path d="M172.38,9.49c28.29,14.25,58.48,21.63,86.42,48.96-31.37-22.48-77.12-30.35-114.9-28.48-28.32,1.41-59,8.78-82.93,24.48,2.41-2.09,3.59-3.72,9.99-8.49-.3,2.46,5.62-1.9,8.24-3,24.55-10.28,51.46-14.3,77.93-14.49l1-27.48c4.53,3.59,9.17,5.94,14.24,8.49Z" fill="#f5be28" stroke-width="0"/>
          <path d="M172.38,9.49c-5.07-2.55-9.71-4.9-14.24-8.49l-1,27.48c-26.47.18-53.38,4.21-77.93,14.49-2.62,1.1-8.55,5.46-8.24,3,30.77-22.93,44.04-22.68,67.69-33.97C149.82,6.66,157,.04,158.15,0c.85-.03,12.18,8.57,14.24,9.49Z" fill="#f5cc30" stroke-width="0"/>
        </g>
      </g>
      <path d="M280.29,204.32c.99-1.94,2.06-4.04,3-5.99.04,1.03,1.23,3.66,1,4.25-.36.95-2.61.63-4,1.75Z" fill="#e8e5e3" stroke-width="0"/>
      <g>
        <path d="M13.52,114.4c12.41,50.43,38.74,88.13,75.93,123.39,11.19,10.6,20.48,18.41,32.97,27.48,4.22,3.06,31.97,22.3,34.72,21.98,68.36-39.3,120.21-98.48,143.62-174.35,4.25,0,8.71-1.44,12.99,0-3.26,14.53-11.56,37.49-16.99,51.95-1.28.41-2.44.27-3.5,1.25-1.15,1.07-13.46,23.06-15.99,26.98-32.77,50.73-67.58,87.95-120.15,118.65-56.82-33.44-100.82-85.31-133.13-142.13-2.52-2.18-3.6-6.19-5.5-5.74-6.16-17.02-12.99-33.7-16.99-51.46,5.57.66,13.04-.44,11.99,2Z" fill="url(#linear-gradient)" stroke-width="0"/>
        <path d="M203.86,54.45c17.96,3.42,29.07,7.97,45.46,14.99-11.8,4.23-23.51,9-33.97,15.99-.29-.07-.71.07-1,0-64.1-15.4-128.26-6.79-184.34,28.23l5,8.24c-2.51.1-5.28-8.71-5.74-8.99-.71-.43-15.66-.62-15.74,1.5,1.05-2.44-6.42-1.34-11.99-2-.04-.2-1.8-2.31-1.5-3.75.38-1.83,18.58-15.7,21.48-17.73,52.04-36.55,120.38-48.26,182.34-36.47Z" fill="#51b9c5" stroke-width="0"/>
        <path d="M296.78,164.86c-2.16,5.76-4.11,11.84-6.49,17.48-2.22,5.27-4.53,10.84-6.99,15.99-.94,1.96-2.01,4.06-3,5.99-.17.34-.33.68-.5,1-.92,1.78-2.02,3.72-3,5.5-1.47,2.67-3.41,5.36-5,7.99-1.85,3.07-3.55,6.53-5.5,9.49-1.07,1.64-2.37,3.34-3.5,5-3.81,5.56-8.32,11.16-12.49,16.49-7.33,9.37-15.19,18.95-23.48,27.48-3.49,3.6-7.32,7.06-10.99,10.49-7.34,6.87-41.9,35.92-48.46,39.97-1.22.75-2.84,1.92-3,2-7.04,3.55-7.04,2.53-11.49,1-1.47-.5-3.13-1.27-4.5-2-1.22-.65-2.79-1.73-4-2.5-7.39-4.74-37.87-31.14-45.46-38.47-3.62-3.5-7.53-7.34-10.99-10.99-22.86-24.07-42.62-51.21-57.45-80.93-.37-3.89-3.24-7.84-4.5-11.49-2.38-6.89-5.02-13.64-7.49-20.48,1.9-.44,2.98,3.57,5.5,5.74,32.31,56.81,76.31,108.69,133.13,142.13,52.57-30.7,87.38-67.91,120.15-118.65,2.53-3.91,14.84-25.91,15.99-26.98,1.06-.98,2.22-.84,3.5-1.25Z" fill="#991e33" stroke-width="0"/>
        <path d="M249.32,69.44c23.57,10.08,45.89,22.17,65.44,38.97.25,1.8-.62,2.8-1,4.5-4.27-1.44-8.74,0-12.99,0-2.79,0-15.19.08-15.99,0-3.72-.38-34.22-18.81-69.44-27.48,10.46-6.98,22.17-11.76,33.97-15.99Z" fill="#2e8a97" stroke-width="0"/>
        <path d="M201.36,47.96c-1.78,1.12.08,5.64,2.5,6.49-61.97-11.79-130.3-.08-182.34,36.47,4.37-6.99,15.78-14.08,24.48-21.98,48.5-24.63,102.05-31.62,155.36-20.98Z" fill="#e8e5e3" stroke-width="0"/>
        <path d="M277.29,75.93c4.84,4.6,16.41,12.89,14.99,14.49-21.8-14.3-51.96-27.76-77.18-34.47l1.75-4.5c21.14,5.54,41.27,14.1,60.45,24.48Z" fill="#f4d7ca" stroke-width="0"/>
        <path d="M216.85,51.46l-1.75,4.5c25.22,6.71,55.38,20.17,77.18,34.47,3.09,2.02,22.16,15.7,22.48,17.98-19.56-16.79-41.88-28.88-65.44-38.97-16.39-7.01-27.5-11.57-45.46-14.99-2.42-.85-4.27-5.37-2.5-6.49,5.12,1.02,10.44,2.17,15.49,3.5Z" fill="#f8e7dc" stroke-width="0"/>
        <path d="M35,121.89c.76-.03,7.16-3.99,13.49-6.99,1.78,1.23,4.01.94,5.99,1-3.91,2.85-5.53,5.73-5.99,10.49-.4,4.15-.84,19.3,1.5,21.98-3.55,1.77-11.26,28.74,9.99,30.47-3.96,16.11,16.06,31.58,29.22,36.97,33.92,13.88,80.24-1.86,73.19-30.97-.53-2.19-1.85-3.89-2.5-5.99,4.95-.18,10.54,1.01,14.74-2,6.35-4.55,3.93-14.29,5.5-14.99,1.56-.69,20.6,4.52,19.73-20.73l1.75-.75c4.17,1.71-7.71,35.05,14.49,38.47,1.32.2,24.22.62,26.73.5-11.2,16.33-23.02,32.58-37.72,45.96-6.56,5.97-44.56,33.99-47.46,34.47-2.74.46-14.01-7.71-16.74-6.99.14-.7-.23-1.13-.75-1.5-6.96-4.91-33.09-18.26-43.46-25.48-5.42-.47-10.59,1.17-15.74,2.75-.17.61,8.55,7.32,8.49,9.24C52.26,202.53,25.93,164.83,13.52,114.4c.08-2.12,15.02-1.93,15.74-1.5.47.28,3.23,9.09,5.74,8.99Z" fill="url(#linear-gradient-2)" stroke-width="0"/>
        <path d="M300.77,112.9c-23.41,75.87-75.26,135.05-143.62,174.35-2.75.32-30.5-18.92-34.72-21.98,3.25-1.67,17.33-12.18,18.48-12.49,2.72-.72,13.99,7.45,16.74,6.99,2.9-.48,40.89-28.5,47.46-34.47,14.7-13.38,26.52-29.63,37.72-45.96,9.27-.45,19.15-3.21,21.48-13.74.61-2.74.96-38.13.5-40.96-.07-.42-2.14-4.8-2.5-5.25,2.8-.84,1.9-2.43,2-5,8.01,3.63,14.41,7.69,15.24,7.49.53-.12,6.45-8.5,5.25-8.99.8.08,13.2,0,15.99,0Z" fill="#21556b" stroke-width="0"/>
        <path d="M140.91,252.78c-1.16.31-15.23,10.82-18.48,12.49-12.5-9.07-21.79-16.87-32.97-27.48.06-1.92-8.67-8.63-8.49-9.24,5.14-1.58,10.32-3.21,15.74-2.75,10.37,7.22,36.5,20.57,43.46,25.48.52.37.89.8.75,1.5Z" fill="#27788a" stroke-width="0"/>
        <g>
          <path d="M214.35,85.43c-5.97,11.53-9.71,4.96-18.48,5.99-42.11-7.22-83.36-3.74-123.14,11.99-3.83,1.51-7.5,3.85-11.24,5.5-4.43,1.95-8.63,3.92-12.99,5.99-6.33,3.01-12.73,6.96-13.49,6.99l-5-8.24c56.08-35.02,120.24-43.63,184.34-28.23Z" fill="#4a3048" stroke-width="0"/>
          <path d="M215.35,85.43c35.22,8.66,65.72,27.09,69.44,27.48,1.2.5-4.71,8.87-5.25,8.99-.83.19-7.23-3.86-15.24-7.49-20.91-9.48-37.05-16.67-59.95-21.48-2.81-.59-5.66-1.01-8.49-1.5,8.78-1.04,12.51,5.53,18.48-5.99.29.07.71-.07,1,0Z" fill="#332436" stroke-width="0"/>
        </g>
        <path d="M200.36,95.42c-7.82,5.13-19.16,13.98-25.98,20.48-6.33.19-14.89-1.65-18.98,4.75-3.94,6.16-.95,22.3-2.25,30.22-8.32-14.04-11.94-40.12-31.97-34.97-9.68,2.49-11.4,15.82-15.24,25.48-.66-3.1-2.48-1.48-5-3,1.47-5.06,2.44-6.49.5-12.24-4.91-14.58-26.68-9.67-46.96-10.24-1.99-.06-4.21.23-5.99-1,4.36-2.07,8.56-4.05,12.99-5.99,1.22-.11,1.69,1.86,2.75,2,1.7.22,22.07-8.26,32.47-10.99,33.36-8.75,69.66-9.66,103.66-4.5Z" fill="#8bc7cf" stroke-width="0"/>
        <path d="M264.3,114.4c-.09,2.56.8,4.16-2,5-5.42-6.65-21.09-6.07-22.48,3.75-.32,2.27.83,14.34.5,23.23h-13.49c.03-11.17,3.49-28.22-10.74-30.47-10.52-1.67-13.72,4.16-14.49,4-2.1-.46,5.14-4.98-27.23-4,6.82-6.5,18.15-15.35,25.98-20.48.35-.23,3.11-.56,4-2.5,22.9,4.81,39.04,12,59.95,21.48Z" fill="#57a2a7" stroke-width="0"/>
        <path d="M195.86,91.42c2.83.49,5.68.91,8.49,1.5-.89,1.94-3.65,2.27-4,2.5-34-5.16-70.3-4.26-103.66,4.5-10.4,2.73-30.77,11.22-32.47,10.99-1.05-.14-1.53-2.11-2.75-2,3.74-1.65,7.41-3.98,11.24-5.5,39.78-15.73,81.03-19.21,123.14-11.99Z" fill="#8bc7cf" stroke-width="0"/>
        <g>
          <path d="M50.99,129.39c-.44,4.03-.92,17.05,2.5,18.98-1.05-.13-2.51-.5-3.5,0-2.34-2.68-1.9-17.84-1.5-21.98,1.79-1.22,1.51,1.58,2.5,3Z" fill="#4a3048" stroke-width="0"/>
          <path d="M53.49,148.37c-3.42-1.93-2.94-14.96-2.5-18.98.33-3.02,1.05-6.18,4.75-6.99,1.96-.43,28.22-.37,32.47,1,10.24,15.08-6.61,8.7-24.48,9.99-5.02,12.62,13.49,2.02,26.48,11.49,11.42,8.33,6.45,25.44.5,27.48-2.51.86-30.88.75-33.97,0-6.44-1.56-11.38-10.81-5.99-15.99,11.04.47,9.46,5.62,9.99,5.99.82.58,19.02.28,19.98,0,4.81-1.4,2.93-11.19-3-12.49-2.44-.54-16.01.3-21.48,0-.16,0-2.08-1.42-2.75-1.5Z" fill="#e8e5e3" stroke-width="0"/>
        </g>
        <path d="M240.33,146.37c-.4,10.5,2.3,10.88-13.24,10.49-1.81-.81-.25-8.88-.25-10.49h13.49Z" fill="#27788a" stroke-width="0"/>
        <g>
          <path d="M159.9,178.84c.65,2.11,1.97,3.8,2.5,5.99-2.24,21.17-18.74,29.47-37.72,32.97-.98.18-4.73.01-8.49.5-.48.06-.02,1.39-.5,1.5-1.31.29-15.27-1.46-17.48-2-14.29-3.46-41.71-20.44-37.22-38.22.93-.98,10.09.16,11.99.25,3.93,6.12,8.65,11.6,14.49,15.99,3.03,2.28,6.04,3.91,9.49,5.5,5.79,2.66,11.97,4.99,18.48,5.5,19.64,1.52,36.97-7.69,42.46-27.23l-6.49-.75c2.83-.08,5.67.1,8.49,0Z" fill="url(#linear-gradient-3)" stroke-width="0"/>
          <path d="M115.43,193.33c6.96.43,14.81-1.1,20.98-4.5-9.56,9.15-27.27,9.81-39.47,5-3.17-1.25-5.87-2.84-8.49-5-2.22-1.83-8.13-9.3-8.74-9.49-2.04-.64-4.83.59-6.74.5-1.9-.09-11.06-1.23-11.99-.25-4.49,17.77,22.93,34.75,37.22,38.22,2.22.54,16.17,2.28,17.48,2,.48-.11.02-1.44.5-1.5,3.76-.49,7.51-.32,8.49-.5,18.97-3.5,35.48-11.8,37.72-32.97,7.05,29.11-39.27,44.86-73.19,30.97-13.17-5.39-33.18-20.86-29.22-36.97,4.38.36,25.76-.91,28.23,0,1.48.55,9.75,13.4,27.23,14.49Z" fill="#f5be28" stroke-width="0"/>
          <path d="M115.43,206.82c-1.67-.9,3.8-8.26,4.25-8.49.98-.52,1.9.53,2,.5,11.32-3.77,25.5-6.83,29.22-19.98h.5l6.49.75c-5.5,19.54-22.82,28.75-42.46,27.23Z" fill="#cc5c50" stroke-width="0"/>
          <path d="M150.9,178.84c-3.72,13.15-17.91,16.21-29.22,19.98-.1.03-1.01-1.02-2-.5-.45.24-5.92,7.59-4.25,8.49-6.51-.5-12.69-2.84-18.48-5.5-.39-3.37-3.04-4.04,0-7.49,12.2,4.82,29.91,4.15,39.47-5-.76-.48-2.25-.14-3,0q5.5-5,10.99-9.99h6.49Z" fill="#e17355" stroke-width="0"/>
          <path d="M116.43,178.84c-1.67,1.13-5.58-.7-2.5,4.25,3.09,4.95,18.6,5.91,21.48-3l-1-1.25h9.99q-5.5,5-10.99,9.99c-3.43.62-7.47,3.12-16.99,2.5-10.3-.68-19.81-5.51-26.98-12.74l26.98.25Z" fill="#faae4d" stroke-width="0"/>
          <path d="M134.42,178.84l1,1.25c-2.88,8.91-18.39,7.94-21.48,3-3.09-4.94.82-3.12,2.5-4.25,2.55-1.72-2.16-6.43,7.74-5.5,4.03.38,7.15,3.16,10.24,5.5Z" fill="#ed8753" stroke-width="0"/>
          <path d="M136.42,188.84c-6.17,3.39-14.02,4.93-20.98,4.5-.75-2.28-.04-.86,1-2,9.51.62,13.56-1.87,16.99-2.5.74-.14,2.23-.48,3,0Z" fill="#99553e" stroke-width="0"/>
          <path d="M88.46,188.84c-2.58.27-.26,4.74-1,6.99-5.83-4.39-10.56-9.86-14.49-15.99,1.91.09,4.7-1.14,6.74-.5.62.19,6.52,7.66,8.74,9.49Z" fill="#faae4d" stroke-width="0"/>
          <path d="M88.46,188.84c2.62,2.15,5.32,3.74,8.49,5-3.04,3.45-.39,4.12,0,7.49-3.45-1.58-6.46-3.21-9.49-5.5.73-2.26-1.58-6.72,1-6.99Z" fill="#ed8753" stroke-width="0"/>
        </g>
        <g>
          <path d="M262.31,119.4c.36.44,2.43,4.82,2.5,5.25.46,2.84.11,38.22-.5,40.96-2.33,10.53-12.21,13.29-21.48,13.74-2.51.12-25.41-.3-26.73-.5-22.2-3.42-10.32-36.76-14.49-38.47l-1.75.75c.87,25.25-18.18,20.04-19.73,20.73-1.57.69.85,10.44-5.5,14.99-4.2,3.01-9.78,1.82-14.74,2-2.82.1-5.67-.08-8.49,0h-16.99c-3.09-2.34-6.21-5.11-10.24-5.5-9.9-.93-5.19,3.78-7.74,5.5l-26.98-.25c7.17,7.23,16.68,12.06,26.98,12.74-1.04,1.14-1.75-.28-1,2-17.48-1.09-25.74-13.94-27.23-14.49-2.46-.91-23.84.36-28.23,0-21.25-1.73-13.54-28.7-9.99-30.47.99-.5,2.45-.13,3.5,0,.67.08,2.59,1.49,2.75,1.5,5.47.3,19.05-.54,21.48,0,5.92,1.3,7.81,11.09,3,12.49-.96.28-19.17.58-19.98,0-.53-.37,1.05-5.53-9.99-5.99-5.39,5.18-.44,14.43,5.99,15.99,3.1.75,31.46.86,33.97,0,5.95-2.03,10.92-19.15-.5-27.48-12.99-9.47-31.5,1.13-26.48-11.49,17.87-1.29,34.72,5.09,24.48-9.99-4.25-1.36-30.51-1.43-32.47-1-3.7.81-4.41,3.97-4.75,6.99-.99-1.42-.71-4.22-2.5-3,.46-4.76,2.08-7.64,5.99-10.49,20.28.58,42.05-4.34,46.96,10.24,1.94,5.75.97,7.18-.5,12.24-1.04,3.59-3.92.29,2.25,8.99.72-.14,1.69-3.34,2.75-5.99,3.83-9.66,5.56-22.99,15.24-25.48,20.04-5.15,23.65,20.93,31.97,34.97,1.3-7.92-1.69-24.06,2.25-30.22,4.09-6.4,12.65-4.55,18.98-4.75,32.37-.99,25.12,3.54,27.23,4,.76.17,3.97-5.66,14.49-4,14.23,2.26,10.77,19.31,10.74,30.47,0,1.61-1.56,9.69.25,10.49,15.54.39,12.84.01,13.24-10.49.34-8.89-.82-20.96-.5-23.23,1.39-9.82,17.06-10.39,22.48-3.75Z" fill="#332436" stroke-width="0"/>
          <path d="M244.32,122.89c-2.29,5.36,2.17,3.04,10.74,3.5l.25-1.5c1.08,1.56,1.1,34.64.5,37.72-.34,1.74-4.14,6.72-5.74,7.74-5.31,3.37-42.79,7.04-45.71-8.24-.87-4.56.65-30.09,0-38.97h12.99c.56,5.98-.95,33.65.5,36.47,1.59,3.1,23.47,4.33,24.98-1.5.86-3.33-.87-30.07,0-33.47.07-.26.95-1.74,1.5-1.75Z" fill="#e8e5e3" stroke-width="0"/>
          <path d="M162.14,122.39c3.12-.6,28.46-.1,34.22.75.95,17.05-10.32,7.33-27.48,10.99-1.33,13.81,1.21,8.17,19.73,9.24,2.33,13.85-10.7,8.19-19.73,9.74-1.21,17.87,5.81,22.45-13.49,18.98.8-8.07-.2-40.8.5-43.96.48-2.17,4.14-5.34,6.24-5.74Z" fill="#e8e5e3" stroke-width="0"/>
          <path d="M255.31,124.89l-.25,1.5c-8.57-.46-13.03,1.86-10.74-3.5,2.79-1.08,9.24-.52,10.99,2Z" fill="#e8e5e3" stroke-width="0"/>
          <path d="M105.94,141.38c-1.05,2.65-2.03,5.85-2.75,5.99-6.17-8.7-3.29-5.41-2.25-8.99,2.51,1.52,4.34-.1,5,3Z" fill="#51b9c5" stroke-width="0"/>
          <g>
            <path d="M123.68,122.39c2.38-.15,6.28,1.39,7.74,3.25,1.56,1.98,15.69,39.81,19.48,46.46-21.25,3.97-12.26-4.43-15.24-5.74-.98-.43-20.51-.46-21.48,0-2.62,1.23,3.07,9.71-14.24,5.74,3.26-7.43,14.79-44.78,18.73-47.71.73-.54,4.38-1.96,5-2Z" fill="#e8e5e3" stroke-width="0"/>
            <path d="M125.18,137.38l6.99,19.48-14.74-.75,7.74-18.73Z" fill="#33192c" stroke-width="0"/>
          </g>
        </g>
      </g>
    </g>
  </g>
</svg>
